<?xml version="1.0" standalone="no"?>
<!DOCTYPE svg PUBLIC "-//W3C//DTD SVG 20010904//EN"
 "http://www.w3.org/TR/2001/REC-SVG-20010904/DTD/svg10.dtd">
<svg version="1.0" xmlns="http://www.w3.org/2000/svg"
 width="1024.000000pt" height="1024.000000pt" viewBox="0 0 1024.000000 1024.000000"
 preserveAspectRatio="xMidYMid meet">
<metadata>
Created by potrace 1.14, written by Peter Selinger 2001-2017
</metadata>
<g transform="translate(0.000000,1024.000000) scale(0.100000,-0.100000)"
fill="#000000" stroke="none">
<path d="M4974 8890 c-644 -54 -1274 -284 -1806 -660 -174 -123 -293 -224
-454 -384 -334 -334 -544 -649 -743 -1111 -82 -190 -173 -515 -201 -715 -6
-47 -16 -114 -21 -150 -17 -106 -23 -560 -10 -700 41 -443 145 -809 346 -1211
374 -747 1059 -1368 1865 -1689 305 -122 687 -213 1005 -240 660 -55 1412 116
1995 454 271 158 481 319 729 561 501 489 827 1089 955 1760 55 287 61 359 60
695 0 272 -4 335 -23 460 -73 479 -232 920 -465 1288 -153 241 -329 455 -552
672 -163 158 -206 194 -384 322 -483 345 -1057 566 -1665 638 -120 15 -505 21
-631 10z m661 -410 c269 -41 561 -121 802 -221 692 -288 1270 -838 1599 -1524
201 -420 284 -828 271 -1334 -8 -336 -54 -599 -162 -926 -56 -172 -190 -449
-303 -628 -291 -462 -789 -907 -1267 -1132 -450 -212 -861 -307 -1325 -307
-500 0 -938 104 -1390 329 -289 143 -568 340 -801 562 l-94 90 273 1 273 0 92
-78 c106 -90 258 -200 369 -266 106 -64 345 -178 453 -216 108 -37 326 -93
449 -115 380 -66 782 -32 1183 100 384 126 707 328 1003 625 294 295 493 643
587 1025 25 103 25 365 -1 460 -65 240 -211 444 -416 581 -116 77 -255 144
-626 302 -155 66 -305 132 -334 147 -71 36 -142 111 -171 179 -12 31 -27 56
-31 56 -5 0 -44 -35 -87 -78 -85 -85 -111 -137 -111 -223 0 -98 61 -202 159
-267 32 -21 123 -67 202 -102 721 -317 826 -378 938 -545 70 -105 95 -186 95
-310 -1 -114 -13 -181 -59 -315 -123 -362 -411 -712 -789 -959 -333 -217 -795
-343 -1201 -328 -649 25 -1238 319 -1634 817 -164 206 -302 470 -356 681 -9
35 -20 80 -25 99 l-9 35 -188 -3 c-103 -1 -191 -2 -194 -2 -11 0 38 -189 80
-310 56 -163 147 -353 225 -473 l18 -27 -279 0 -279 0 -53 87 c-123 206 -249
511 -308 743 -124 494 -124 1027 2 1530 146 588 540 1184 1047 1587 487 387
1061 610 1743 677 112 11 496 -4 630 -24z"/>
<path d="M5065 8179 c-322 -26 -647 -112 -924 -245 -362 -173 -637 -393 -892
-712 -205 -256 -366 -590 -420 -872 -19 -98 -16 -350 4 -434 24 -95 62 -187
116 -281 55 -96 223 -270 321 -334 62 -40 565 -295 737 -374 179 -82 253 -154
296 -288 14 -41 27 -73 31 -72 31 8 128 74 168 114 106 106 130 229 70 352
-62 126 -118 162 -577 377 -414 194 -502 242 -597 328 -50 45 -120 152 -146
223 -137 372 104 923 588 1347 285 250 681 424 1085 477 155 20 455 20 593 -1
846 -125 1589 -793 1777 -1596 l19 -78 193 0 c224 0 205 -13 172 125 -111 469
-387 936 -748 1269 -181 166 -489 369 -702 462 -376 166 -798 243 -1164 213z"/>
<path d="M5100 7539 c-246 -17 -508 -88 -721 -195 -281 -141 -566 -423 -684
-676 -60 -130 -79 -216 -79 -358 -1 -178 38 -291 146 -427 79 -100 159 -152
448 -294 357 -177 435 -228 526 -352 130 -176 133 -428 7 -626 -75 -117 -169
-195 -306 -251 l-58 -24 43 -38 c24 -21 112 -90 195 -154 l153 -116 48 40 c74
62 193 191 235 255 136 206 195 417 184 665 -10 242 -91 435 -256 614 -111
120 -229 196 -511 328 -298 140 -351 177 -411 290 -21 39 -24 58 -23 140 1
113 19 170 95 285 148 227 413 396 754 482 140 35 396 43 546 18 265 -44 535
-175 754 -365 190 -165 332 -384 390 -602 l18 -68 200 0 200 0 -7 38 c-10 63
-75 251 -120 347 -147 311 -414 605 -716 787 -328 198 -677 283 -1050 257z"/>
<path d="M5669 6726 c-41 -34 -104 -95 -141 -134 -210 -223 -313 -514 -287
-815 19 -226 106 -415 264 -573 104 -104 217 -174 449 -275 279 -123 339 -155
400 -209 28 -27 65 -72 81 -102 27 -48 30 -61 30 -149 0 -93 -1 -98 -44 -184
-36 -72 -62 -108 -140 -188 -180 -186 -402 -301 -693 -359 -162 -32 -446 -32
-598 1 -297 63 -541 193 -746 396 -152 151 -240 282 -304 457 l-37 100 -192 2
-192 1 6 -35 c12 -64 67 -224 105 -305 97 -210 275 -442 454 -592 301 -253
660 -402 1048 -434 408 -35 900 97 1228 328 131 93 301 266 369 377 253 410
183 835 -177 1065 -29 19 -179 91 -332 161 -298 136 -384 188 -451 273 -85
107 -119 206 -119 346 1 264 173 470 441 527 44 10 78 21 77 24 -9 23 -354
317 -414 353 -6 4 -44 -22 -85 -57z"/>
<path d="M3403 1865 c-72 -44 -104 -145 -67 -218 26 -51 54 -75 107 -93 62
-21 111 -9 166 42 152 137 -30 374 -206 269z"/>
<path d="M6871 1874 c-54 -28 -86 -86 -86 -159 0 -52 4 -67 28 -98 15 -20 42
-45 60 -54 73 -38 184 -7 228 63 44 72 19 184 -53 235 -42 30 -130 37 -177 13z"/>
<path d="M4195 1791 c-43 -11 -107 -46 -127 -68 -17 -18 -16 -21 30 -66 l48
-47 48 16 c31 11 67 15 103 12 48 -4 61 -10 85 -37 35 -39 35 -55 2 -88 -24
-23 -31 -25 -82 -19 -32 3 -67 9 -78 12 -20 5 -23 0 -33 -61 -7 -37 -11 -68
-9 -70 2 -1 37 -12 78 -24 89 -27 130 -60 130 -106 0 -63 -72 -96 -163 -74
-39 9 -62 23 -97 59 -36 37 -50 45 -65 39 -124 -51 -136 -58 -126 -76 26 -50
97 -115 154 -142 230 -110 478 -16 477 181 0 58 -25 122 -59 152 l-21 19 44
47 c53 56 64 100 45 168 -17 62 -87 132 -154 156 -56 20 -185 29 -230 17z"/>
<path d="M6015 1783 c-206 -74 -272 -315 -154 -563 45 -95 89 -144 165 -181
53 -27 78 -33 128 -32 174 1 303 126 313 303 11 188 -78 384 -207 454 -69 38
-170 45 -245 19z m192 -208 c95 -104 113 -322 32 -379 -33 -23 -104 -21 -145
5 -62 38 -114 161 -114 268 0 102 57 166 140 157 38 -3 51 -11 87 -51z"/>
<path d="M5122 1658 c-127 -172 -177 -278 -188 -396 -17 -178 94 -308 272
-320 105 -7 174 17 241 84 83 83 101 180 54 289 -49 111 -171 173 -288 147
-24 -6 -43 -8 -43 -7 0 2 50 69 110 149 l111 146 -101 0 -100 0 -68 -92z m168
-363 c70 -36 81 -106 25 -162 -34 -34 -38 -35 -92 -31 -48 4 -61 10 -85 37
-20 23 -28 42 -28 69 0 78 102 127 180 87z"/>
</g>
</svg>
